<?xml version="1.0" encoding="UTF-8" standalone="no"?><!DOCTYPE svg PUBLIC "-//W3C//DTD SVG 1.1//EN" "http://www.w3.org/Graphics/SVG/1.1/DTD/svg11.dtd"><!-- Generated by graphviz version 2.40.1 (20161225.0304)
 --><!-- Title: %0 Pages: 1 --><svg xmlns="http://www.w3.org/2000/svg" xmlns:xlink="http://www.w3.org/1999/xlink" width="4109pt" height="260pt" viewBox="0.00 0.00 4109.31 260.00">
<g id="graph0" class="graph" transform="scale(1 1) rotate(0) translate(4 256)">
<title>%0</title>
<polygon fill="#ffffff" stroke="transparent" points="-4,4 -4,-256 4105.3108,-256 4105.3108,4 -4,4"/>
<!-- [root] aws_apigatewayv2_api.GoZeit&#45;api&#45;gw (expand) -->
<g id="node1" class="node">
<title>[root] aws_apigatewayv2_api.GoZeit-api-gw (expand)</title>
<polygon fill="none" stroke="#000000" points="233.458,-108 -.1528,-108 -.1528,-72 233.458,-72 233.458,-108"/>
<text text-anchor="middle" x="116.6526" y="-85.8" font-family="Times,serif" font-size="14.00" fill="#000000">aws_apigatewayv2_api.GoZeit-api-gw</text>
</g>
<!-- [root] provider[&quot;registry.terraform.io/hashicorp/aws&quot;] -->
<g id="node14" class="node">
<title>[root] provider["registry.terraform.io/hashicorp/aws"]</title>
<polygon fill="none" stroke="#000000" points="2099.6526,-36 1824.6621,-18 2099.6526,0 2374.6431,-18 2099.6526,-36"/>
<text text-anchor="middle" x="2099.6526" y="-13.8" font-family="Times,serif" font-size="14.00" fill="#000000">provider["registry.terraform.io/hashicorp/aws"]</text>
</g>
<!-- [root] aws_apigatewayv2_api.GoZeit&#45;api&#45;gw (expand)&#45;&gt;[root] provider[&quot;registry.terraform.io/hashicorp/aws&quot;] -->
<g id="edge1" class="edge">
<title>[root] aws_apigatewayv2_api.GoZeit-api-gw (expand)-&gt;[root] provider["registry.terraform.io/hashicorp/aws"]</title>
<path fill="none" stroke="#000000" d="M233.3765,-72.7638C236.1602,-72.4909 238.9221,-72.2355 241.6526,-72 549.7869,-45.4237 1438.1192,-28.3718 1865.066,-21.4807"/>
<polygon fill="#000000" stroke="#000000" points="1865.1226,-24.9803 1875.065,-21.3198 1865.01,-17.9812 1865.1226,-24.9803"/>
</g>
<!-- [root] aws_cloudfront_distribution.GoZeit&#45;cf (expand) -->
<g id="node2" class="node">
<title>[root] aws_cloudfront_distribution.GoZeit-cf (expand)</title>
<polygon fill="none" stroke="#000000" points="484.4846,-108 250.8206,-108 250.8206,-72 484.4846,-72 484.4846,-108"/>
<text text-anchor="middle" x="367.6526" y="-85.8" font-family="Times,serif" font-size="14.00" fill="#000000">aws_cloudfront_distribution.GoZeit-cf</text>
</g>
<!-- [root] aws_cloudfront_distribution.GoZeit&#45;cf (expand)&#45;&gt;[root] provider[&quot;registry.terraform.io/hashicorp/aws&quot;] -->
<g id="edge2" class="edge">
<title>[root] aws_cloudfront_distribution.GoZeit-cf (expand)-&gt;[root] provider["registry.terraform.io/hashicorp/aws"]</title>
<path fill="none" stroke="#000000" d="M484.6389,-72.8487C487.6724,-72.5454 490.681,-72.2614 493.6526,-72 755.7925,-48.9369 1503.7474,-30.5399 1879.1283,-22.4567"/>
<polygon fill="#000000" stroke="#000000" points="1879.3777,-25.9522 1889.3002,-22.2382 1879.2273,-18.9538 1879.3777,-25.9522"/>
</g>
<!-- [root] aws_cloudwatch_dashboard.aws_cloudwatch_dashboard&#45;646027d9 (expand) -->
<g id="node3" class="node">
<title>[root] aws_cloudwatch_dashboard.aws_cloudwatch_dashboard-646027d9 (expand)</title>
<polygon fill="none" stroke="#000000" points="898.4768,-108 502.8284,-108 502.8284,-72 898.4768,-72 898.4768,-108"/>
<text text-anchor="middle" x="700.6526" y="-85.8" font-family="Times,serif" font-size="14.00" fill="#000000">aws_cloudwatch_dashboard.aws_cloudwatch_dashboard-646027d9</text>
</g>
<!-- [root] aws_cloudwatch_dashboard.aws_cloudwatch_dashboard&#45;646027d9 (expand)&#45;&gt;[root] provider[&quot;registry.terraform.io/hashicorp/aws&quot;] -->
<g id="edge3" class="edge">
<title>[root] aws_cloudwatch_dashboard.aws_cloudwatch_dashboard-646027d9 (expand)-&gt;[root] provider["registry.terraform.io/hashicorp/aws"]</title>
<path fill="none" stroke="#000000" d="M898.6778,-72.6064C901.6899,-72.3986 904.683,-72.1963 907.6526,-72 1259.1707,-48.7644 1669.6731,-32.5701 1905.6781,-24.3155"/>
<polygon fill="#000000" stroke="#000000" points="1905.8671,-27.8111 1915.739,-23.9647 1905.6231,-20.8154 1905.8671,-27.8111"/>
</g>
<!-- [root] aws_cognito_user_pool.GoZeit&#45;cognito (expand) -->
<g id="node4" class="node">
<title>[root] aws_cognito_user_pool.GoZeit-cognito (expand)</title>
<polygon fill="none" stroke="#000000" points="1154.9361,-108 916.3691,-108 916.3691,-72 1154.9361,-72 1154.9361,-108"/>
<text text-anchor="middle" x="1035.6526" y="-85.8" font-family="Times,serif" font-size="14.00" fill="#000000">aws_cognito_user_pool.GoZeit-cognito</text>
</g>
<!-- [root] aws_cognito_user_pool.GoZeit&#45;cognito (expand)&#45;&gt;[root] provider[&quot;registry.terraform.io/hashicorp/aws&quot;] -->
<g id="edge4" class="edge">
<title>[root] aws_cognito_user_pool.GoZeit-cognito (expand)-&gt;[root] provider["registry.terraform.io/hashicorp/aws"]</title>
<path fill="none" stroke="#000000" d="M1155.1903,-72.8746C1158.0371,-72.5686 1160.8611,-72.2763 1163.6526,-72 1420.2517,-46.5992 1717.6976,-31.957 1907.1788,-24.4849"/>
<polygon fill="#000000" stroke="#000000" points="1907.3899,-27.9794 1917.2452,-24.0906 1907.1159,-20.9847 1907.3899,-27.9794"/>
</g>
<!-- [root] aws_dynamodb_global_table.aws_dynamodb_global_table&#45;cc2f0b8f (expand) -->
<g id="node5" class="node">
<title>[root] aws_dynamodb_global_table.aws_dynamodb_global_table-cc2f0b8f (expand)</title>
<polygon fill="none" stroke="#000000" points="1574.718,-108 1172.5872,-108 1172.5872,-72 1574.718,-72 1574.718,-108"/>
<text text-anchor="middle" x="1373.6526" y="-85.8" font-family="Times,serif" font-size="14.00" fill="#000000">aws_dynamodb_global_table.aws_dynamodb_global_table-cc2f0b8f</text>
</g>
<!-- [root] aws_dynamodb_global_table.aws_dynamodb_global_table&#45;cc2f0b8f (expand)&#45;&gt;[root] provider[&quot;registry.terraform.io/hashicorp/aws&quot;] -->
<g id="edge5" class="edge">
<title>[root] aws_dynamodb_global_table.aws_dynamodb_global_table-cc2f0b8f (expand)-&gt;[root] provider["registry.terraform.io/hashicorp/aws"]</title>
<path fill="none" stroke="#000000" d="M1555.4479,-71.9707C1688.1565,-58.8095 1864.3229,-41.3385 1979.7702,-29.8892"/>
<polygon fill="#000000" stroke="#000000" points="1980.4486,-33.3391 1990.0544,-28.8692 1979.7577,-26.3733 1980.4486,-33.3391"/>
</g>
<!-- [root] aws_lambda_function.aws_lambda_function&#45;1e320c3e (expand) -->
<g id="node6" class="node">
<title>[root] aws_lambda_function.aws_lambda_function-1e320c3e (expand)</title>
<polygon fill="none" stroke="#000000" points="1918.2222,-108 1593.083,-108 1593.083,-72 1918.2222,-72 1918.2222,-108"/>
<text text-anchor="middle" x="1755.6526" y="-85.8" font-family="Times,serif" font-size="14.00" fill="#000000">aws_lambda_function.aws_lambda_function-1e320c3e</text>
</g>
<!-- [root] aws_lambda_function.aws_lambda_function&#45;1e320c3e (expand)&#45;&gt;[root] provider[&quot;registry.terraform.io/hashicorp/aws&quot;] -->
<g id="edge6" class="edge">
<title>[root] aws_lambda_function.aws_lambda_function-1e320c3e (expand)-&gt;[root] provider["registry.terraform.io/hashicorp/aws"]</title>
<path fill="none" stroke="#000000" d="M1842.0143,-71.9243C1898.0352,-60.199 1970.3287,-45.0678 2024.0706,-33.8195"/>
<polygon fill="#000000" stroke="#000000" points="2024.8105,-37.2405 2033.8814,-31.7661 2023.3765,-30.389 2024.8105,-37.2405"/>
</g>
<!-- [root] aws_lambda_function.aws_lambda_function&#45;864c7820 (expand) -->
<g id="node7" class="node">
<title>[root] aws_lambda_function.aws_lambda_function-864c7820 (expand)</title>
<polygon fill="none" stroke="#000000" points="2262.7932,-108 1936.512,-108 1936.512,-72 2262.7932,-72 2262.7932,-108"/>
<text text-anchor="middle" x="2099.6526" y="-85.8" font-family="Times,serif" font-size="14.00" fill="#000000">aws_lambda_function.aws_lambda_function-864c7820</text>
</g>
<!-- [root] aws_lambda_function.aws_lambda_function&#45;864c7820 (expand)&#45;&gt;[root] provider[&quot;registry.terraform.io/hashicorp/aws&quot;] -->
<g id="edge7" class="edge">
<title>[root] aws_lambda_function.aws_lambda_function-864c7820 (expand)-&gt;[root] provider["registry.terraform.io/hashicorp/aws"]</title>
<path fill="none" stroke="#000000" d="M2099.6526,-71.8314C2099.6526,-64.131 2099.6526,-54.9743 2099.6526,-46.4166"/>
<polygon fill="#000000" stroke="#000000" points="2103.1527,-46.4132 2099.6526,-36.4133 2096.1527,-46.4133 2103.1527,-46.4132"/>
</g>
<!-- [root] aws_lambda_function.aws_lambda_function&#45;a66c58f9 (expand) -->
<g id="node8" class="node">
<title>[root] aws_lambda_function.aws_lambda_function-a66c58f9 (expand)</title>
<polygon fill="none" stroke="#000000" points="2604.1686,-108 2281.1366,-108 2281.1366,-72 2604.1686,-72 2604.1686,-108"/>
<text text-anchor="middle" x="2442.6526" y="-85.8" font-family="Times,serif" font-size="14.00" fill="#000000">aws_lambda_function.aws_lambda_function-a66c58f9</text>
</g>
<!-- [root] aws_lambda_function.aws_lambda_function&#45;a66c58f9 (expand)&#45;&gt;[root] provider[&quot;registry.terraform.io/hashicorp/aws&quot;] -->
<g id="edge8" class="edge">
<title>[root] aws_lambda_function.aws_lambda_function-a66c58f9 (expand)-&gt;[root] provider["registry.terraform.io/hashicorp/aws"]</title>
<path fill="none" stroke="#000000" d="M2356.542,-71.9243C2300.7998,-60.2233 2228.8996,-45.1306 2175.3486,-33.8895"/>
<polygon fill="#000000" stroke="#000000" points="2175.7384,-30.3951 2165.2326,-31.7661 2174.3003,-37.2458 2175.7384,-30.3951"/>
</g>
<!-- [root] aws_lambda_function.aws_lambda_function&#45;e94ef1e8 (expand) -->
<g id="node9" class="node">
<title>[root] aws_lambda_function.aws_lambda_function-e94ef1e8 (expand)</title>
<polygon fill="none" stroke="#000000" points="2944.8829,-108 2622.4223,-108 2622.4223,-72 2944.8829,-72 2944.8829,-108"/>
<text text-anchor="middle" x="2783.6526" y="-85.8" font-family="Times,serif" font-size="14.00" fill="#000000">aws_lambda_function.aws_lambda_function-e94ef1e8</text>
</g>
<!-- [root] aws_lambda_function.aws_lambda_function&#45;e94ef1e8 (expand)&#45;&gt;[root] provider[&quot;registry.terraform.io/hashicorp/aws&quot;] -->
<g id="edge9" class="edge">
<title>[root] aws_lambda_function.aws_lambda_function-e94ef1e8 (expand)-&gt;[root] provider["registry.terraform.io/hashicorp/aws"]</title>
<path fill="none" stroke="#000000" d="M2622.1366,-72.8951C2619.2865,-72.5943 2616.4565,-72.2957 2613.6526,-72 2476.9932,-57.5865 2319.8871,-41.0922 2215.7081,-30.1653"/>
<polygon fill="#000000" stroke="#000000" points="2215.79,-26.6548 2205.4795,-29.0926 2215.0598,-33.6166 2215.79,-26.6548"/>
</g>
<!-- [root] aws_route53_zone.GoZeit&#45;route53&#45;zone (expand) -->
<g id="node10" class="node">
<title>[root] aws_route53_zone.GoZeit-route53-zone (expand)</title>
<polygon fill="none" stroke="#000000" points="3205.7849,-108 2963.5203,-108 2963.5203,-72 3205.7849,-72 3205.7849,-108"/>
<text text-anchor="middle" x="3084.6526" y="-85.8" font-family="Times,serif" font-size="14.00" fill="#000000">aws_route53_zone.GoZeit-route53-zone</text>
</g>
<!-- [root] aws_route53_zone.GoZeit&#45;route53&#45;zone (expand)&#45;&gt;[root] provider[&quot;registry.terraform.io/hashicorp/aws&quot;] -->
<g id="edge10" class="edge">
<title>[root] aws_route53_zone.GoZeit-route53-zone (expand)-&gt;[root] provider["registry.terraform.io/hashicorp/aws"]</title>
<path fill="none" stroke="#000000" d="M2963.3583,-73.0145C2960.0905,-72.6595 2956.8505,-72.3204 2953.6526,-72 2720.8541,-48.6778 2451.2844,-33.6141 2278.2895,-25.4742"/>
<polygon fill="#000000" stroke="#000000" points="2278.2198,-21.9672 2268.0671,-24.996 2277.8926,-28.9596 2278.2198,-21.9672"/>
</g>
<!-- [root] aws_s3_bucket.aws_s3_bucket&#45;9513ce4f (expand) -->
<g id="node11" class="node">
<title>[root] aws_s3_bucket.aws_s3_bucket-9513ce4f (expand)</title>
<polygon fill="none" stroke="#000000" points="3471.4636,-108 3223.8416,-108 3223.8416,-72 3471.4636,-72 3471.4636,-108"/>
<text text-anchor="middle" x="3347.6526" y="-85.8" font-family="Times,serif" font-size="14.00" fill="#000000">aws_s3_bucket.aws_s3_bucket-9513ce4f</text>
</g>
<!-- [root] aws_s3_bucket.aws_s3_bucket&#45;9513ce4f (expand)&#45;&gt;[root] provider[&quot;registry.terraform.io/hashicorp/aws&quot;] -->
<g id="edge11" class="edge">
<title>[root] aws_s3_bucket.aws_s3_bucket-9513ce4f (expand)-&gt;[root] provider["registry.terraform.io/hashicorp/aws"]</title>
<path fill="none" stroke="#000000" d="M3223.8003,-72.8823C3220.7221,-72.5716 3217.669,-72.2766 3214.6526,-72 2902.3405,-43.357 2539.3309,-29.3484 2314.515,-22.918"/>
<polygon fill="#000000" stroke="#000000" points="2314.343,-19.4118 2304.2478,-22.6268 2314.1445,-26.409 2314.343,-19.4118"/>
</g>
<!-- [root] aws_s3_bucket.aws_s3_bucket&#45;ac362a72 (expand) -->
<g id="node12" class="node">
<title>[root] aws_s3_bucket.aws_s3_bucket-ac362a72 (expand)</title>
<polygon fill="none" stroke="#000000" points="3738.0174,-108 3489.2878,-108 3489.2878,-72 3738.0174,-72 3738.0174,-108"/>
<text text-anchor="middle" x="3613.6526" y="-85.8" font-family="Times,serif" font-size="14.00" fill="#000000">aws_s3_bucket.aws_s3_bucket-ac362a72</text>
</g>
<!-- [root] aws_s3_bucket.aws_s3_bucket&#45;ac362a72 (expand)&#45;&gt;[root] provider[&quot;registry.terraform.io/hashicorp/aws&quot;] -->
<g id="edge12" class="edge">
<title>[root] aws_s3_bucket.aws_s3_bucket-ac362a72 (expand)-&gt;[root] provider["registry.terraform.io/hashicorp/aws"]</title>
<path fill="none" stroke="#000000" d="M3489.0935,-72.7756C3486.2548,-72.5016 3483.4382,-72.2424 3480.6526,-72 3085.4486,-37.6092 2624.7061,-25.1165 2347.9152,-20.5812"/>
<polygon fill="#000000" stroke="#000000" points="2347.7936,-17.0788 2337.7383,-20.4166 2347.6804,-24.0779 2347.7936,-17.0788"/>
</g>
<!-- [root] aws_ses_email_identity.aws_ses_email_identity&#45;4b588fbd (expand) -->
<g id="node13" class="node">
<title>[root] aws_ses_email_identity.aws_ses_email_identity-4b588fbd (expand)</title>
<polygon fill="none" stroke="#000000" points="4101.4691,-108 3755.8361,-108 3755.8361,-72 4101.4691,-72 4101.4691,-108"/>
<text text-anchor="middle" x="3928.6526" y="-85.8" font-family="Times,serif" font-size="14.00" fill="#000000">aws_ses_email_identity.aws_ses_email_identity-4b588fbd</text>
</g>
<!-- [root] aws_ses_email_identity.aws_ses_email_identity&#45;4b588fbd (expand)&#45;&gt;[root] provider[&quot;registry.terraform.io/hashicorp/aws&quot;] -->
<g id="edge13" class="edge">
<title>[root] aws_ses_email_identity.aws_ses_email_identity-4b588fbd (expand)-&gt;[root] provider["registry.terraform.io/hashicorp/aws"]</title>
<path fill="none" stroke="#000000" d="M3755.7578,-72.6232C3752.6996,-72.406 3749.6625,-72.198 3746.6526,-72 3248.3795,-39.2274 2663.9349,-26.0415 2342.4497,-20.9683"/>
<polygon fill="#000000" stroke="#000000" points="2342.1239,-17.4629 2332.0703,-20.8059 2342.0143,-24.462 2342.1239,-17.4629"/>
</g>
<!-- [root] provider[&quot;registry.terraform.io/hashicorp/aws&quot;] (close) -->
<g id="node15" class="node">
<title>[root] provider["registry.terraform.io/hashicorp/aws"] (close)</title>
<ellipse fill="none" stroke="#000000" cx="2099.6526" cy="-162" rx="247.2168" ry="18"/>
<text text-anchor="middle" x="2099.6526" y="-157.8" font-family="Times,serif" font-size="14.00" fill="#000000">[root] provider["registry.terraform.io/hashicorp/aws"] (close)</text>
</g>
<!-- [root] provider[&quot;registry.terraform.io/hashicorp/aws&quot;] (close)&#45;&gt;[root] aws_apigatewayv2_api.GoZeit&#45;api&#45;gw (expand) -->
<g id="edge14" class="edge">
<title>[root] provider["registry.terraform.io/hashicorp/aws"] (close)-&gt;[root] aws_apigatewayv2_api.GoZeit-api-gw (expand)</title>
<path fill="none" stroke="#000000" d="M1857.1407,-158.3911C1431.8385,-151.4931 566.7327,-134.7771 243.7066,-108.1085"/>
<polygon fill="#000000" stroke="#000000" points="243.6356,-104.5902 233.3765,-107.2362 243.0465,-111.5653 243.6356,-104.5902"/>
</g>
<!-- [root] provider[&quot;registry.terraform.io/hashicorp/aws&quot;] (close)&#45;&gt;[root] aws_cloudfront_distribution.GoZeit&#45;cf (expand) -->
<g id="edge15" class="edge">
<title>[root] provider["registry.terraform.io/hashicorp/aws"] (close)-&gt;[root] aws_cloudfront_distribution.GoZeit-cf (expand)</title>
<path fill="none" stroke="#000000" d="M1861.1393,-157.1542C1484.9834,-148.9812 769.4065,-131.1426 494.6228,-108.0113"/>
<polygon fill="#000000" stroke="#000000" points="494.9024,-104.5225 484.6389,-107.1513 494.3016,-111.4967 494.9024,-104.5225"/>
</g>
<!-- [root] provider[&quot;registry.terraform.io/hashicorp/aws&quot;] (close)&#45;&gt;[root] aws_cloudwatch_dashboard.aws_cloudwatch_dashboard&#45;646027d9 (expand) -->
<g id="edge16" class="edge">
<title>[root] provider["registry.terraform.io/hashicorp/aws"] (close)-&gt;[root] aws_cloudwatch_dashboard.aws_cloudwatch_dashboard-646027d9 (expand)</title>
<path fill="none" stroke="#000000" d="M1874.3066,-154.5765C1636.8452,-146.1087 1251.6773,-130.5448 908.8093,-108.0608"/>
<polygon fill="#000000" stroke="#000000" points="908.8862,-104.5584 898.6778,-107.3936 908.4262,-111.5433 908.8862,-104.5584"/>
</g>
<!-- [root] provider[&quot;registry.terraform.io/hashicorp/aws&quot;] (close)&#45;&gt;[root] aws_cognito_user_pool.GoZeit&#45;cognito (expand) -->
<g id="edge17" class="edge">
<title>[root] provider["registry.terraform.io/hashicorp/aws"] (close)-&gt;[root] aws_cognito_user_pool.GoZeit-cognito (expand)</title>
<path fill="none" stroke="#000000" d="M1876.0896,-154.2631C1688.7137,-146.5599 1413.9768,-132.4301 1165.149,-108.1058"/>
<polygon fill="#000000" stroke="#000000" points="1165.4851,-104.6221 1155.1903,-107.1254 1164.7993,-111.5884 1165.4851,-104.6221"/>
</g>
<!-- [root] provider[&quot;registry.terraform.io/hashicorp/aws&quot;] (close)&#45;&gt;[root] aws_dynamodb_global_table.aws_dynamodb_global_table&#45;cc2f0b8f (expand) -->
<g id="edge18" class="edge">
<title>[root] provider["registry.terraform.io/hashicorp/aws"] (close)-&gt;[root] aws_dynamodb_global_table.aws_dynamodb_global_table-cc2f0b8f (expand)</title>
<path fill="none" stroke="#000000" d="M1953.1725,-147.4731C1841.5755,-136.4056 1686.9534,-121.0712 1565.49,-109.0252"/>
<polygon fill="#000000" stroke="#000000" points="1565.6231,-105.5213 1555.3264,-108.0172 1564.9322,-112.4871 1565.6231,-105.5213"/>
</g>
<!-- [root] provider[&quot;registry.terraform.io/hashicorp/aws&quot;] (close)&#45;&gt;[root] aws_lambda_function.aws_lambda_function&#45;1e320c3e (expand) -->
<g id="edge19" class="edge">
<title>[root] provider["registry.terraform.io/hashicorp/aws"] (close)-&gt;[root] aws_lambda_function.aws_lambda_function-1e320c3e (expand)</title>
<path fill="none" stroke="#000000" d="M2018.1294,-144.937C1968.1997,-134.4866 1904.0501,-121.0599 1851.6681,-110.0963"/>
<polygon fill="#000000" stroke="#000000" points="1852.1988,-106.6316 1841.6938,-108.0086 1850.7647,-113.4831 1852.1988,-106.6316"/>
</g>
<!-- [root] provider[&quot;registry.terraform.io/hashicorp/aws&quot;] (close)&#45;&gt;[root] aws_lambda_function.aws_lambda_function&#45;864c7820 (expand) -->
<g id="edge20" class="edge">
<title>[root] provider["registry.terraform.io/hashicorp/aws"] (close)-&gt;[root] aws_lambda_function.aws_lambda_function-864c7820 (expand)</title>
<path fill="none" stroke="#000000" d="M2099.6526,-143.8314C2099.6526,-136.131 2099.6526,-126.9743 2099.6526,-118.4166"/>
<polygon fill="#000000" stroke="#000000" points="2103.1527,-118.4132 2099.6526,-108.4133 2096.1527,-118.4133 2103.1527,-118.4132"/>
</g>
<!-- [root] provider[&quot;registry.terraform.io/hashicorp/aws&quot;] (close)&#45;&gt;[root] aws_lambda_function.aws_lambda_function&#45;a66c58f9 (expand) -->
<g id="edge21" class="edge">
<title>[root] provider["registry.terraform.io/hashicorp/aws"] (close)-&gt;[root] aws_lambda_function.aws_lambda_function-a66c58f9 (expand)</title>
<path fill="none" stroke="#000000" d="M2180.9388,-144.937C2230.7233,-134.4866 2294.6865,-121.0599 2346.9162,-110.0963"/>
<polygon fill="#000000" stroke="#000000" points="2347.7938,-113.4884 2356.8615,-108.0086 2346.3557,-106.6377 2347.7938,-113.4884"/>
</g>
<!-- [root] provider[&quot;registry.terraform.io/hashicorp/aws&quot;] (close)&#45;&gt;[root] aws_lambda_function.aws_lambda_function&#45;e94ef1e8 (expand) -->
<g id="edge22" class="edge">
<title>[root] provider["registry.terraform.io/hashicorp/aws"] (close)-&gt;[root] aws_lambda_function.aws_lambda_function-e94ef1e8 (expand)</title>
<path fill="none" stroke="#000000" d="M2240.9172,-147.1903C2341.5568,-136.6321 2480.3542,-122.0558 2611.8732,-108.1873"/>
<polygon fill="#000000" stroke="#000000" points="2612.5589,-111.6345 2622.1366,-107.1049 2611.8247,-104.6731 2612.5589,-111.6345"/>
</g>
<!-- [root] provider[&quot;registry.terraform.io/hashicorp/aws&quot;] (close)&#45;&gt;[root] aws_route53_zone.GoZeit&#45;route53&#45;zone (expand) -->
<g id="edge23" class="edge">
<title>[root] provider["registry.terraform.io/hashicorp/aws"] (close)-&gt;[root] aws_route53_zone.GoZeit-route53-zone (expand)</title>
<path fill="none" stroke="#000000" d="M2313.2148,-152.8502C2483.6431,-144.5164 2728.6854,-130.2321 2953.3523,-107.9831"/>
<polygon fill="#000000" stroke="#000000" points="2953.7549,-111.4604 2963.3583,-106.9855 2953.0604,-104.4949 2953.7549,-111.4604"/>
</g>
<!-- [root] provider[&quot;registry.terraform.io/hashicorp/aws&quot;] (close)&#45;&gt;[root] aws_s3_bucket.aws_s3_bucket&#45;9513ce4f (expand) -->
<g id="edge24" class="edge">
<title>[root] provider["registry.terraform.io/hashicorp/aws"] (close)-&gt;[root] aws_s3_bucket.aws_s3_bucket-9513ce4f (expand)</title>
<path fill="none" stroke="#000000" d="M2335.2594,-156.4784C2558.7864,-149.8638 2904.2565,-136.0781 3213.7316,-108.0362"/>
<polygon fill="#000000" stroke="#000000" points="3214.1596,-111.5118 3223.8003,-107.1177 3213.5236,-104.5408 3214.1596,-111.5118"/>
</g>
<!-- [root] provider[&quot;registry.terraform.io/hashicorp/aws&quot;] (close)&#45;&gt;[root] aws_s3_bucket.aws_s3_bucket&#45;ac362a72 (expand) -->
<g id="edge25" class="edge">
<title>[root] provider["registry.terraform.io/hashicorp/aws"] (close)-&gt;[root] aws_s3_bucket.aws_s3_bucket-ac362a72 (expand)</title>
<path fill="none" stroke="#000000" d="M2344.5685,-159.4734C2618.6867,-155.0214 3076.18,-142.7359 3478.9903,-108.0989"/>
<polygon fill="#000000" stroke="#000000" points="3479.4326,-111.5738 3489.0935,-107.2244 3478.8289,-104.5999 3479.4326,-111.5738"/>
</g>
<!-- [root] provider[&quot;registry.terraform.io/hashicorp/aws&quot;] (close)&#45;&gt;[root] aws_ses_email_identity.aws_ses_email_identity&#45;4b588fbd (expand) -->
<g id="edge26" class="edge">
<title>[root] provider["registry.terraform.io/hashicorp/aws"] (close)-&gt;[root] aws_ses_email_identity.aws_ses_email_identity-4b588fbd (expand)</title>
<path fill="none" stroke="#000000" d="M2343.7202,-159.0116C2663.3519,-153.9573 3241.3531,-140.9031 3745.7272,-108.0338"/>
<polygon fill="#000000" stroke="#000000" points="3746.0079,-111.523 3755.7578,-107.3768 3745.5504,-104.5379 3746.0079,-111.523"/>
</g>
<!-- [root] root -->
<g id="node16" class="node">
<title>[root] root</title>
<ellipse fill="none" stroke="#000000" cx="2099.6526" cy="-234" rx="50.9823" ry="18"/>
<text text-anchor="middle" x="2099.6526" y="-229.8" font-family="Times,serif" font-size="14.00" fill="#000000">[root] root</text>
</g>
<!-- [root] root&#45;&gt;[root] provider[&quot;registry.terraform.io/hashicorp/aws&quot;] (close) -->
<g id="edge27" class="edge">
<title>[root] root-&gt;[root] provider["registry.terraform.io/hashicorp/aws"] (close)</title>
<path fill="none" stroke="#000000" d="M2099.6526,-215.8314C2099.6526,-208.131 2099.6526,-198.9743 2099.6526,-190.4166"/>
<polygon fill="#000000" stroke="#000000" points="2103.1527,-190.4132 2099.6526,-180.4133 2096.1527,-190.4133 2103.1527,-190.4132"/>
</g>
</g>
</svg>